<?xml version="1.0" encoding="UTF-8"?>
<svg enable-background="new 0 0 296.4 59" version="1.1" viewBox="0 0 296.4 59" xml:space="preserve" xmlns="http://www.w3.org/2000/svg">
<style type="text/css">
	.st0{fill:#FFFFFF;}
	.st1{fill:#BFBFBF;}
</style>
	<g transform="translate(172 443)">
		<path class="st0" d="m-172-426.6v42.6l8.3-4.9v-37.6l13.4-7.8 13 7.5v-10.2l-8.3-4.9c-1.4-0.7-2.9-1.1-4.5-1.1-1.5 0-3.1 0.4-4.5 1.1l-13.2 7.7c-2.6 1.6-4.2 4.5-4.2 7.6z"/>
	</g>
	<g transform="translate(172 443)">
		<path class="st1" d="m-145.6-412.6v23.7l8.3 4.9v-28.7"/>
	</g>
	<g transform="translate(172 443)">
		<path class="st0" d="m-167.6-410.6l13.4 7.4c1.4 0.7 2.9 1 4.5 1 1.5-0.1 3.1-0.5 4.4-1.2l8.2-5-0.2-10.2-12.8 7.8-13.6-7.5v-0.1l-5.7-4.7-1.3 5c0 3.1 0.4 6 3.1 7.5z"/>
	</g>
		<path class="st0" d="m66 16.2c3 0 6 1.4 7.3 4.2 1.2-2.7 3.2-3.8 6.2-3.8 1.8 0 3.2 0.8 3.2 1.1l-3.5 16.4c-0.6 2.8-0.2 3.9 1.5 4.5 0 0-0.7 2.6-4.8 2.6-3.8 0-5.6-2-5.7-4.9-1.6 2.9-4.6 4.9-8.3 4.9-5.1 0-8.6-3.7-8.6-9.5-0.1-7.9 5.1-15.5 12.7-15.5zm-0.3 17.8c2.6 0 4.8-1.9 5.4-4.9l0.6-2.9c-0.7-1.8-2-3-4.1-3-3.5 0-5.6 3.4-5.6 6.9 0 2.3 1.5 3.9 3.7 3.9z"/>
		<path class="st0" d="m86.3 39c1.5 2.4 3.5 3.8 7 3.8 3.8 0 5.6-1.7 6.3-5l0.4-1.8c-1.8 2.2-4.1 3.3-7.2 3.3-5.3 0-8.9-3.8-8.9-9.6 0-6.6 4.5-13.4 12.4-13.4 3 0 6 1.3 7.5 4 1.2-2.5 3.2-3.6 6.2-3.6 1.8 0 3.2 0.8 3.2 1.1l-4.3 20.2c-1.8 8.4-5.8 12.3-15.6 12.3-5.1 0-7.7-1.5-9.2-3-1.1-1-1.5-2.3-1.5-3.6-0.2-3.3 3.5-5 3.7-4.7zm10.1-6.6c2.6 0 4.7-1.6 5.2-4l0.5-2.5c-0.7-1.6-2.1-2.6-4.2-2.6-3.5 0-5.4 2.6-5.4 5.4 0 2.1 1.6 3.7 3.9 3.7z"/>
		<path class="st0" d="m128.1 16.2c6.5 0 10 3 10 7.4 0 4.9-3.1 7.9-13.6 7.9-1.2 0-2.4 0-3.8-0.1 0.3 2.3 2 3.5 4.9 3.5 2.8 0 5-1.4 6.4-3.2 0 0 3.6 0.4 3.6 3.3 0 1.6-0.5 2.4-1.5 3.5-1.5 1.5-4.5 2.7-8.7 2.7-8.4 0-12.2-4.5-12.2-10.5 0-8.7 6.6-14.5 14.9-14.5zm-4.4 10.1c5.4 0 7-1 7-2.4 0-1-1-1.9-3-1.9-2.7 0-4.9 1.9-6.1 4.4 0.8 0 1.5-0.1 2.1-0.1z"/>
		<path class="st0" d="m142.8 17.1c0-0.2 1.2-0.6 2.7-0.6 2.4 0 4.7 1.2 4.9 4.5 2.1-3 4.8-4.9 8.6-4.9 4.6 0 7.2 3 7.2 7.4 0 1.7-0.5 3.8-1.3 6.9-0.6 2.3-1.1 4.1-1.1 5.1 0 1.4 0.6 2 1.9 2.3 0.1 0-0.8 3.3-5.5 3.3-4 0-5.7-1.9-5.7-4.7 0-1.4 0.3-2.8 1.1-5.6 0.6-2.1 0.9-3.6 0.9-4.4 0-1.8-1-2.9-2.8-2.9-1.6 0-2.6 0.7-3.6 2.1l-2.3 10.7c-0.7 3.4-1.9 4.5-4.2 4.5h-1c-2.5 0-4.8-1.1-4-4.5l4.2-19.2z"/>
		<path class="st0" d="m172.2 23.7h-0.5c-2 0-3.2-1-3.2-2.5 0-0.8 0.3-2.6 1.2-3.6 0.6-0.6 1.3-0.9 3.2-0.9h0.8l0.1-0.7c0.9-4.2 2.6-6 6.7-6 2 0 3.5 0.8 3.4 1.1l-1.2 5.7h2.7c2.2 0 3.4 1 3.4 2.5 0 0.8-0.3 2.6-1.2 3.6-0.6 0.6-1.3 0.9-3.2 0.9h-3.3l-1.6 7.8c-0.4 2 0.3 2.9 1.7 2.9 1 0 2-0.5 2.7-1.1 0.2-0.2 1.3 0.7 1.3 2.4 0 1.4-0.5 2.5-1.5 3.5-1.2 1.3-3.3 2-5.9 2-6.1 0-8.6-3.5-7.4-9.3l1.8-8.3z"/>
		<path class="st0" d="m207.2 8.8c5.4 0 8.5 1.6 10.3 3.4 1.3 1.3 1.9 2.9 1.9 4 0 5-6.1 5.5-6.3 5.2-1-2.4-2.8-3.9-5.8-3.9-4.6 0-8.1 3.9-8.1 8.7 0 3.6 2.5 6.2 6 6.2 2.7 0 4.8-1.2 6.3-3.3 0.1-0.3 4.8 0.8 4.8 4.5 0 1.2-0.7 2.5-1.9 3.8-2 2-5.6 3.6-9.9 3.6-9.4 0-15.3-5.4-15.3-13.9 0.2-9.6 7.6-18.3 18-18.3z"/>
		<path class="st0" d="m232.6 16.2c7.8 0 11.7 4.9 11.7 10.9 0 7.2-4.8 14.1-13.5 14.1-7.8 0-11.7-4.9-11.7-10.9 0-7.2 4.8-14.1 13.5-14.1zm-1.6 18.2c3.4 0 5.6-3.5 5.6-7 0-2.5-1.7-4.5-4.2-4.5-3.4 0-5.6 3.5-5.6 7 0 2.6 1.7 4.5 4.2 4.5z"/>
		<path class="st0" d="m248.5 25.1c-0.5-3.6-1.7-4.5-3.4-4.8-0.2 0 0.8-4.1 5.6-4.1 1.6 0 2.9 0.4 3.9 1.4 1.4 1.4 2 3.5 2.2 6.8l0.4 6.3 8.1-14.4c0-0.2 6.3 0.4 6.3 4.4 0 1.4-0.5 2.4-1.8 4.4l-9.3 13.5c-1.2 1.9-3.9 2.2-5.3 2.2-2 0-4.4-0.6-4.7-2.6l-2-13.1z"/>
		<path class="st0" d="m286.4 16.2c6.5 0 10 3 10 7.4 0 4.9-3.1 7.9-13.6 7.9-1.2 0-2.4 0-3.8-0.1 0.3 2.3 2 3.5 4.9 3.5 2.8 0 5-1.4 6.4-3.2 0 0 3.6 0.4 3.6 3.3 0 1.6-0.5 2.4-1.5 3.5-1.5 1.5-4.5 2.7-8.7 2.7-8.4 0-12.2-4.5-12.2-10.5-0.1-8.7 6.6-14.5 14.9-14.5zm-4.4 10.1c5.4 0 7-1 7-2.4 0-1-1-1.9-3-1.9-2.7 0-4.9 1.9-6.1 4.4 0.7 0 1.5-0.1 2.1-0.1z"/>
</svg>
