<?xml version="1.0" encoding="UTF-8"?>
<svg enable-background="new 0 0 48.1 81.4" version="1.1" viewBox="0 0 48.1 81.4" xml:space="preserve" xmlns="http://www.w3.org/2000/svg">
<style type="text/css">
	.st0{fill:#AE340D;}
	.st1{fill:#401616;}
</style>
	<g transform="translate(172 443)">
		<path class="st0" d="m-172-420.3v58.8l11.5-6.8v-51.9l18.5-10.8 17.9 10.3v-14.1l-11.5-6.7c-1.9-1-4-1.5-6.1-1.5s-4.2 0.6-6.1 1.5l-18.2 10.6c-3.7 2.2-6 6.2-6 10.6z"/>
	</g>
	<g transform="translate(172 443)">
		<path class="st1" d="m-135.5-401.1v32.7l11.5 6.8v-39.6"/>
	</g>
	<g transform="translate(172 443)">
		<path class="st0" d="m-166-398.2l18.5 10.2c1.9 0.9 4 1.4 6.2 1.4 2.1-0.1 4.2-0.6 6.1-1.7l11.4-7-0.3-14.1-17.7 10.7-18.8-10.3v-0.1l-7.8-6.5-1.8 6.9c0.1 4.3 0.5 8.3 4.2 10.5z"/>
	</g>
</svg>
