<?xml version="1.0" encoding="UTF-8"?>
<svg enable-background="new 0 0 34.9 59" version="1.1" viewBox="0 0 34.9 59" xml:space="preserve" xmlns="http://www.w3.org/2000/svg">
<style type="text/css">
	.st0{fill:#FFFFFF;}
	.st1{fill:#BFBFBF;}
</style>
	<g transform="translate(172 443)">
		<path class="st0" d="m-172-426.6v42.6l8.3-4.9v-37.6l13.4-7.8 13 7.5v-10.2l-8.3-4.9c-1.4-0.7-2.9-1.1-4.5-1.1-1.5 0-3.1 0.4-4.5 1.1l-13.2 7.7c-2.6 1.6-4.2 4.5-4.2 7.6z"/>
	</g>
	<g transform="translate(172 443)">
		<path class="st1" d="m-145.6-412.6v23.7l8.3 4.9v-28.7"/>
	</g>
	<g transform="translate(172 443)">
		<path class="st0" d="m-167.6-410.6l13.4 7.4c1.4 0.7 2.9 1 4.5 1 1.5-0.1 3.1-0.5 4.4-1.2l8.2-5-0.2-10.2-12.8 7.8-13.6-7.5v-0.1l-5.7-4.7-1.3 5c0 3.1 0.4 6 3.1 7.5z"/>
	</g>
</svg>
